<svg width="399.125px" height="129.2px" xmlns="http://www.w3.org/2000/svg" viewBox="50.4375 10.400000000000006 399.125 129.2" style="background: rgba(0, 0, 0, 0);" preserveAspectRatio="xMidYMid"><defs><linearGradient id="editing-shiny-gradient" x1="0.04322727117869957" x2="0.9567727288213004" y1="0.2966316784620999" y2="0.7033683215379001" gradientUnits="objectBoundingBox"><stop offset="0.0" stop-color="#ffb200"></stop><stop offset="0.5" stop-color="#e10057"></stop><stop offset="1.0" stop-color="#5A1A80"></stop></linearGradient><linearGradient id="editing-shiny-gradient2" x1="0" x2="0" y1="0" y2="1"><stop offset="0.2" stop-color="#fff" stop-opacity="0.8"></stop><stop offset="0.8" stop-color="#fff" stop-opacity="0"></stop></linearGradient><filter id="editing-shiny2" x="-100%" y="-100%" width="300%" height="300%"><feMorphology operator="erode" radius="2"></feMorphology></filter><filter id="editing-shiny" x="-100%" y="-100%" width="300%" height="300%"><feFlood flood-color="#fff" result="flood"></feFlood><feConvolveMatrix in="SourceGraphic" result="conv" order="8,8" divisor="1" kernelMatrix="0 0 0 0 0 0 0 0 0 0 0 1 1 0 0 0 0 0 0 1 1 0 0 0 0 0 1 0 0 1 0 0 0 0 1 0 0 1 0 0 0 1 0 0 0 0 1 0 0 1 1 0 0 1 1 0 0 0 0 1 1 0 0 0 "></feConvolveMatrix><feOffset dx="0" dy="4" in="conv" result="offset"></feOffset><feComposite operator="in" in="flood" in2="offset" result="comp"></feComposite><feGaussianBlur in="offset" stdDeviation="3" result="shadow"></feGaussianBlur><feColorMatrix in="shadow" type="matrix" values="0.7 0 0 0 0  0 0.7 0 0 0  0 0 0.7 0 0  0 0 0 0.3 0" result="dark-shadow"></feColorMatrix><feOffset dx="0" dy="4" in="dark-shadow" result="offset-shadow"></feOffset><feOffset dx="0" dy="2" in="conv" result="offset-2"></feOffset><feComposite operator="out" in="offset" in2="offset-2" result="edge-diff"></feComposite><feGaussianBlur in="edge-diff" stdDeviation="1" result="edge-blur"></feGaussianBlur><feColorMatrix in="edge-blur" result="edge-shadow" type="matrix" values="0 0 0 0 0  0 0 0 0 0  0 0 0 0 0  0 0 0 0.5 0"></feColorMatrix><feComposite operator="in" in="edge-shadow" in2="offset" result="edge-shadow-in"></feComposite><feOffset dx="0" dy="1" in="edge-shadow-in" result="edge-shadow-final"></feOffset><feMerge result="out"><feMergeNode in="offset-shadow"></feMergeNode><feMergeNode in="comp"></feMergeNode><feMergeNode in="edge-shadow-final"></feMergeNode><feMergeNode in="SourceGraphic"></feMergeNode></feMerge></filter></defs><g filter="url(#editing-shiny)"><g transform="translate(110.90498065948486, 107.02999877929688)"><path d="M10.75-16.56L10.75-16.56L10.75-16.56Q10.34-13.31 10.34-11.39L10.34-11.39L10.34-11.39Q10.34-9.47 10.81-7.84L10.81-7.84L10.81-7.84Q11.28-6.22 12.16-5.03L12.16-5.03L12.16-5.03Q14.03-2.50 16.91-2.50L16.91-2.50L16.91-2.50Q22.41-2.50 22.41-8.56L22.41-8.56L22.41-8.56Q22.41-13.44 16.75-18.91L16.75-18.91L13.50-22.06L13.50-22.06Q9.22-26.19 7.66-28.69L7.66-28.69L7.66-28.69Q4.56-33.63 4.56-38.50L4.56-38.50L4.56-38.50Q4.56-42.47 7.13-45.16L7.13-45.16L7.13-45.16Q10.22-48.44 16.03-48.44L16.03-48.44L16.03-48.44Q18.31-48.44 19.47-48.22L19.47-48.22L19.47-48.22Q21.63-47.81 22.34-47.81L22.34-47.81L22.34-47.81Q24.16-47.81 25.16-48.94L25.16-48.94L25.16-48.94Q25.53-49.34 25.97-50L25.97-50L25.97-50Q28.25-48.72 28.25-40.59L28.25-40.59L28.25-40.59Q28.25-35.41 27.22-32.94L27.22-32.94L27.22-32.94Q26.88-32.09 26.44-31.88L26.44-31.88L26.44-31.88Q25.94-36.59 23.38-40.31L23.38-40.31L23.38-40.31Q20.38-44.69 16.44-44.69L16.44-44.69L16.44-44.69Q13.06-44.69 12.28-41.59L12.28-41.59L12.28-41.59Q12.06-40.72 12.06-39.42L12.06-39.42L12.06-39.42Q12.06-38.13 12.84-36.47L12.84-36.47L12.84-36.47Q13.63-34.81 14.89-33.17L14.89-33.17L14.89-33.17Q16.16-31.53 17.81-29.88L17.81-29.88L17.81-29.88Q22.81-24.75 24.45-22.94L24.45-22.94L24.45-22.94Q26.09-21.13 27.38-19.19L27.38-19.19L27.38-19.19Q30.19-14.84 30.19-10.78L30.19-10.78L30.19-10.78Q30.19-5.88 26.38-2.66L26.38-2.66L26.38-2.66Q22.44 0.63 16.25 0.63L16.25 0.63L16.25 0.63Q11.13 0.63 7.44-1.94L7.44-1.94L7.44-1.94Q3.38-4.75 3.38-9.38L3.38-9.38L3.38-9.38Q4.59-13.72 8.69-15.75L8.69-15.75L8.69-15.75Q9.78-16.31 10.75-16.56ZM61.25-30.13L61.25-28.63L60.78-14.66L60.78-14.66Q60.78-6.13 62.28-2.94L62.28-2.94L62.28-2.94Q62.81-1.78 64.16 0L64.16 0L55.47 0L55.47 0Q54.75-2.13 54.53-5.38L54.53-5.38L54.53-5.38Q50.91 0.63 45.19 0.63L45.19 0.63L45.19 0.63Q41.25 0.63 39.16-2.31L39.16-2.31L39.16-2.31Q37.09-5.16 37.09-10.13L37.09-10.13L37.09-14.34L37.09-14.34Q37.09-15.75 37.09-17.22L37.09-17.22L37.03-20.06L37.03-20.06Q37-22.78 36.86-24.30L36.86-24.30L36.86-24.30Q36.72-25.81 36.55-26.83L36.55-26.83L36.55-26.83Q36.38-27.84 36.13-28.64L36.13-28.64L36.13-28.64Q35.88-29.44 35.56-30.13L35.56-30.13L34.88-31.56L43.91-31.56L43.91-31.56Q43.94-31.06 43.94-30.63L43.94-30.63L43.94-29.72L43.94-29.72Q43.94-29.72 43.41-14.03L43.41-14.03L43.41-14.03Q43.41-9.44 44-7.78L44-7.78L44-7.78Q44.59-6.13 45.42-5.41L45.42-5.41L45.42-5.41Q46.25-4.69 47.63-4.69L47.63-4.69L47.63-4.69Q51.34-4.69 53.66-8.75L53.66-8.75L53.66-8.75Q54.28-9.91 54.69-11.09L54.69-11.09L54.69-11.09Q54.75-12.84 54.75-15.06L54.75-15.06L54.75-15.06Q54.75-26.47 53.06-30.13L53.06-30.13L52.38-31.56L61.28-31.56L61.28-31.56Q61.25-30.78 61.25-30.13L61.25-30.13ZM79.75 0L70.78 0L70.78 0Q72.22-4.94 72.22-16.97L72.22-16.97L72.22-16.97Q72.22-25.53 70.72-28.66L70.72-28.66L70.72-28.66Q70.34-29.44 69.88-30.13L69.88-30.13L68.84-31.56L79.69-31.56L79.69-31.56Q79.22-30 79.06-28.63L79.06-28.63L78.81-26.38L78.81-26.38Q82.59-32.19 88.44-32.19L88.44-32.19L88.44-32.19Q92.22-32.19 94.34-29.25L94.34-29.25L94.34-29.25Q96.41-26.38 96.41-21.47L96.41-21.47L96.41-18.13L96.41-18.13Q96.41-9.53 96.56-7.63L96.56-7.63L96.56-7.63Q96.72-5.72 96.81-4.72L96.81-4.72L96.81-4.72Q96.91-3.72 97.03-2.94L97.03-2.94L97.03-2.94Q97.25-1.47 97.69 0L97.69 0L88.53 0L88.53 0Q89.97-4.94 89.97-16.97L89.97-16.97L89.97-16.97Q89.97-21.78 89.36-23.56L89.36-23.56L89.36-23.56Q88.75-25.34 87.91-26.11L87.91-26.11L87.91-26.11Q87.06-26.88 85.69-26.88L85.69-26.88L85.69-26.88Q83.16-26.88 81.09-24.88L81.09-24.88L81.09-24.88Q79.31-23.16 78.38-20.50L78.38-20.50L78.38-20.50Q78.31-19.66 78.31-18.75L78.31-18.75L78.31-16.97L78.31-16.97Q78.31-4.94 79.75 0L79.75 0ZM128.84-16.69L128.84-16.69L128.75-10.69L128.75-10.69Q128.75-5.09 129.78-3.06L129.78-3.06L129.78-3.06Q130.41-1.84 131.25-1.19L131.25-1.19L132.72 0L123.66 0L122.69-3.63L122.69-3.63Q119.16 0.63 112.63 0.63L112.63 0.63L112.63 0.63Q108.91 0.63 106.63-1.88L106.63-1.88L106.63-1.88Q104.63-4.13 104.63-7.19L104.63-7.19L104.63-7.19Q104.63-10.25 106.08-12.53L106.08-12.53L106.08-12.53Q107.53-14.81 109.91-16.31L109.91-16.31L109.91-16.31Q114.59-19.22 121.69-19.34L121.69-19.34L121.69-19.69L121.69-19.69Q121.69-27.28 119.34-28.59L119.34-28.59L119.34-28.59Q118.50-29.06 117.17-29.06L117.17-29.06L117.17-29.06Q115.84-29.06 114.53-28.19L114.53-28.19L114.53-28.19Q113.22-27.31 112.16-25.94L112.16-25.94L112.16-25.94Q110.03-23.16 109.13-19.38L109.13-19.38L109.13-19.38Q106.34-21.03 106.34-25.72L106.34-25.72L106.34-25.72Q106.34-27.63 106.84-30L106.84-30L106.84-30Q108.03-30 109.09-30.34L109.09-30.34L111.50-31.09L111.50-31.09Q115.03-32.19 118.41-32.19L118.41-32.19L118.41-32.19Q121.78-32.19 123.80-31.19L123.80-31.19L123.80-31.19Q125.81-30.19 126.94-28.22L126.94-28.22L126.94-28.22Q128.84-24.88 128.84-16.69ZM111.38-6.56L111.38-6.56Q111.38-4.63 112.27-3.56L112.27-3.56L112.27-3.56Q113.16-2.50 114.50-2.50L114.50-2.50L114.50-2.50Q115.84-2.50 117.09-3.20L117.09-3.20L117.09-3.20Q118.34-3.91 119.34-5.13L119.34-5.13L119.34-5.13Q121.69-7.91 121.69-11.66L121.69-11.66L121.69-16.28L121.69-16.28Q117.31-15.88 114.47-13.38L114.47-13.38L114.47-13.38Q111.38-10.69 111.38-6.56L111.38-6.56ZM162.97-30.13L162.97-28.63L162.50-14.66L162.50-14.66Q162.50-6.13 164-2.94L164-2.94L164-2.94Q164.53-1.78 165.88 0L165.88 0L157.19 0L157.19 0Q156.47-2.13 156.25-5.38L156.25-5.38L156.25-5.38Q152.63 0.63 146.91 0.63L146.91 0.63L146.91 0.63Q142.97 0.63 140.88-2.31L140.88-2.31L140.88-2.31Q138.81-5.16 138.81-10.13L138.81-10.13L138.81-14.34L138.81-14.34Q138.81-15.75 138.81-17.22L138.81-17.22L138.75-20.06L138.75-20.06Q138.72-22.78 138.58-24.30L138.58-24.30L138.58-24.30Q138.44-25.81 138.27-26.83L138.27-26.83L138.27-26.83Q138.09-27.84 137.84-28.64L137.84-28.64L137.84-28.64Q137.59-29.44 137.28-30.13L137.28-30.13L136.59-31.56L145.63-31.56L145.63-31.56Q145.66-31.06 145.66-30.63L145.66-30.63L145.66-29.72L145.66-29.72Q145.66-29.72 145.13-14.03L145.13-14.03L145.13-14.03Q145.13-9.44 145.72-7.78L145.72-7.78L145.72-7.78Q146.31-6.13 147.14-5.41L147.14-5.41L147.14-5.41Q147.97-4.69 149.34-4.69L149.34-4.69L149.34-4.69Q153.06-4.69 155.38-8.75L155.38-8.75L155.38-8.75Q156-9.91 156.41-11.09L156.41-11.09L156.41-11.09Q156.47-12.84 156.47-15.06L156.47-15.06L156.47-15.06Q156.47-26.47 154.78-30.13L154.78-30.13L154.09-31.56L163-31.56L163-31.56Q162.97-30.78 162.97-30.13L162.97-30.13ZM187.47-31.56L197.75-31.56L197.75-31.56Q196.44-29.41 196.44-25.09L196.44-25.09L196.44-25.09Q196.44-24.06 197.06-21.84L197.06-21.84L197.06-21.84Q198.56-16.81 199.22-14.81L199.22-14.81L201.56-8L201.56-8Q203.03-12.34 203.69-14.50L203.69-14.50L203.69-14.50Q206.78-24.81 206.78-26.09L206.78-26.09L206.78-26.09Q206.78-27.38 206.66-28.05L206.66-28.05L206.66-28.05Q206.53-28.72 206.31-29.31L206.31-29.31L206.31-29.31Q205.94-30.16 204.84-31.56L204.84-31.56L215.31-31.56L215.31-31.56Q213.38-29.47 212.63-27.61L212.63-27.61L212.63-27.61Q211.88-25.75 211.50-24.78L211.50-24.78L207.63-13.91L207.63-13.91Q206.19-9.53 205.56-7.41L205.56-7.41L205.56-7.41Q205.19-5.72 205.19-3.81L205.19-3.81L205.19-3.81Q205.19-1.91 206 0.03L206 0.03L194.44 0L194.44 0Q195.19-1.19 195.33-2.23L195.33-2.23L195.33-2.23Q195.47-3.28 195.47-4.28L195.47-4.28L195.47-4.28Q195.47-5.28 195.16-6.75L195.16-6.75L195.16-6.75Q194.84-8.22 194.31-10.13L194.31-10.13L194.31-10.13Q193.25-14.09 191.63-18.59L191.63-18.59L191.63-18.59Q188.59-10.84 187.97-8.33L187.97-8.33L187.97-8.33Q187.34-5.81 187.34-3.89L187.34-3.89L187.34-3.89Q187.34-1.97 188.19 0.03L188.19 0.03L176.63 0L176.63 0Q177.38-1.19 177.52-2.23L177.52-2.23L177.52-2.23Q177.66-3.28 177.66-4.39L177.66-4.39L177.66-4.39Q177.66-5.50 177.20-7.59L177.20-7.59L177.20-7.59Q176.75-9.69 176-12.34L176-12.34L176-12.34Q175.25-15 174.28-17.95L174.28-17.95L174.28-17.95Q173.31-20.91 172.25-23.59L172.25-23.59L172.25-23.59Q169.84-29.69 168.19-31.56L168.19-31.56L179.72-31.56L179.72-31.56Q179.16-30.19 179.16-28.53L179.16-28.53L179.16-28.53Q179.16-26.88 179.39-25.64L179.39-25.64L179.39-25.64Q179.63-24.41 180.02-22.78L180.02-22.78L180.02-22.78Q180.41-21.16 180.94-19.28L180.94-19.28L184.06-8.31L184.06-8.31Q188.53-19.63 189.03-21.80L189.03-21.80L189.03-21.80Q189.53-23.97 189.53-24.59L189.53-24.59L189.53-24.59Q189.53-28.63 187.47-31.56L187.47-31.56ZM241.75-16.69L241.75-16.69L241.66-10.69L241.66-10.69Q241.66-5.09 242.69-3.06L242.69-3.06L242.69-3.06Q243.31-1.84 244.16-1.19L244.16-1.19L245.63 0L236.56 0L235.59-3.63L235.59-3.63Q232.06 0.63 225.53 0.63L225.53 0.63L225.53 0.63Q221.81 0.63 219.53-1.88L219.53-1.88L219.53-1.88Q217.53-4.13 217.53-7.19L217.53-7.19L217.53-7.19Q217.53-10.25 218.98-12.53L218.98-12.53L218.98-12.53Q220.44-14.81 222.81-16.31L222.81-16.31L222.81-16.31Q227.50-19.22 234.59-19.34L234.59-19.34L234.59-19.69L234.59-19.69Q234.59-27.28 232.25-28.59L232.25-28.59L232.25-28.59Q231.41-29.06 230.08-29.06L230.08-29.06L230.08-29.06Q228.75-29.06 227.44-28.19L227.44-28.19L227.44-28.19Q226.13-27.31 225.06-25.94L225.06-25.94L225.06-25.94Q222.94-23.16 222.03-19.38L222.03-19.38L222.03-19.38Q219.25-21.03 219.25-25.72L219.25-25.72L219.25-25.72Q219.25-27.63 219.75-30L219.75-30L219.75-30Q220.94-30 222-30.34L222-30.34L224.41-31.09L224.41-31.09Q227.94-32.19 231.31-32.19L231.31-32.19L231.31-32.19Q234.69-32.19 236.70-31.19L236.70-31.19L236.70-31.19Q238.72-30.19 239.84-28.22L239.84-28.22L239.84-28.22Q241.75-24.88 241.75-16.69ZM224.28-6.56L224.28-6.56Q224.28-4.63 225.17-3.56L225.17-3.56L225.17-3.56Q226.06-2.50 227.41-2.50L227.41-2.50L227.41-2.50Q228.75-2.50 230-3.20L230-3.20L230-3.20Q231.25-3.91 232.25-5.13L232.25-5.13L232.25-5.13Q234.59-7.91 234.59-11.66L234.59-11.66L234.59-16.28L234.59-16.28Q230.22-15.88 227.38-13.38L227.38-13.38L227.38-13.38Q224.28-10.69 224.28-6.56L224.28-6.56ZM267.53-9.41L267.53-10.34L267.56-17.28L267.56-17.28Q267.56-23.81 267.22-25.81L267.22-25.81L267.22-25.81Q266.88-27.81 266.67-28.61L266.67-28.61L266.67-28.61Q266.47-29.41 266.19-30.09L266.19-30.09L265.59-31.56L274.81-31.56L274.66-30.13L274.66-30.13Q274.47-28.63 274.41-25.75L274.41-25.75L274.28-21L274.28-21Q274.13-15.53 274.13-10.78L274.13-10.78L274.13-10.78Q274.13-6.03 273.55-2.66L273.55-2.66L273.55-2.66Q272.97 0.72 272 3.28L272 3.28L272 3.28Q271.03 5.84 269.78 7.70L269.78 7.70L269.78 7.70Q268.53 9.56 267.16 10.81L267.16 10.81L267.16 10.81Q264.78 13.06 261.84 14.06L261.84 14.06L261.84 14.06Q261.22 13.81 260.64 13.14L260.64 13.14L260.64 13.14Q260.06 12.47 259.94 11.88L259.94 11.88L259.94 11.88Q262.69 10.47 264.34 7.56L264.34 7.56L264.34 7.56Q266.69 3.44 267.31-4.34L267.31-4.34L267.31-4.34Q263.69 0.63 258.41 0.63L258.41 0.63L258.41 0.63Q254.66 0.63 252.59-2.31L252.59-2.31L252.59-2.31Q250.63-5.16 250.63-10.13L250.63-10.13L250.63-14.34L250.63-14.34Q250.63-15.75 250.59-17.22L250.59-17.22L250.59-20.06L250.59-20.06Q250.53-22.78 250.39-24.30L250.39-24.30L250.39-24.30Q250.25-25.81 250.08-26.83L250.08-26.83L250.08-26.83Q249.91-27.84 249.66-28.64L249.66-28.64L249.66-28.64Q249.41-29.44 249.09-30.13L249.09-30.13L248.41-31.56L257.94-31.56L257.94-31.56Q257.13-27.09 257.13-14.66L257.13-14.66L257.13-14.66Q257.13-9.59 257.66-7.91L257.66-7.91L257.66-7.91Q258.19-6.22 258.98-5.45L258.98-5.45L258.98-5.45Q259.78-4.69 261.03-4.69L261.03-4.69L261.03-4.69Q262.28-4.69 263.23-5.08L263.23-5.08L263.23-5.08Q264.19-5.47 264.97-6.13L264.97-6.13L264.97-6.13Q266.50-7.31 267.53-9.41L267.53-9.41ZM268.53-12.06L268.72-12.81L268.53-12.06Z" fill="url(#editing-shiny-gradient)"></path></g></g><g filter="url(#editing-shiny2)"><g transform="translate(110.90499591827393, 107.03000259399414)"><path d="M10.75-16.56L10.75-16.56L10.75-16.56Q10.34-13.31 10.34-11.39L10.34-11.39L10.34-11.39Q10.34-9.47 10.81-7.84L10.81-7.84L10.81-7.84Q11.28-6.22 12.16-5.03L12.16-5.03L12.16-5.03Q14.03-2.50 16.91-2.50L16.91-2.50L16.91-2.50Q22.41-2.50 22.41-8.56L22.41-8.56L22.41-8.56Q22.41-13.44 16.75-18.91L16.75-18.91L13.50-22.06L13.50-22.06Q9.22-26.19 7.66-28.69L7.66-28.69L7.66-28.69Q4.56-33.63 4.56-38.50L4.56-38.50L4.56-38.50Q4.56-42.47 7.13-45.16L7.13-45.16L7.13-45.16Q10.22-48.44 16.03-48.44L16.03-48.44L16.03-48.44Q18.31-48.44 19.47-48.22L19.47-48.22L19.47-48.22Q21.63-47.81 22.34-47.81L22.34-47.81L22.34-47.81Q24.16-47.81 25.16-48.94L25.16-48.94L25.16-48.94Q25.53-49.34 25.97-50L25.97-50L25.97-50Q28.25-48.72 28.25-40.59L28.25-40.59L28.25-40.59Q28.25-35.41 27.22-32.94L27.22-32.94L27.22-32.94Q26.88-32.09 26.44-31.88L26.44-31.88L26.44-31.88Q25.94-36.59 23.38-40.31L23.38-40.31L23.38-40.31Q20.38-44.69 16.44-44.69L16.44-44.69L16.44-44.69Q13.06-44.69 12.28-41.59L12.28-41.59L12.28-41.59Q12.06-40.72 12.06-39.42L12.06-39.42L12.06-39.42Q12.06-38.13 12.84-36.47L12.84-36.47L12.84-36.47Q13.63-34.81 14.89-33.17L14.89-33.17L14.89-33.17Q16.16-31.53 17.81-29.88L17.81-29.88L17.81-29.88Q22.81-24.75 24.45-22.94L24.45-22.94L24.45-22.94Q26.09-21.13 27.38-19.19L27.38-19.19L27.38-19.19Q30.19-14.84 30.19-10.78L30.19-10.78L30.19-10.78Q30.19-5.88 26.38-2.66L26.38-2.66L26.38-2.66Q22.44 0.63 16.25 0.63L16.25 0.63L16.25 0.63Q11.13 0.63 7.44-1.94L7.44-1.94L7.44-1.94Q3.38-4.75 3.38-9.38L3.38-9.38L3.38-9.38Q4.59-13.72 8.69-15.75L8.69-15.75L8.69-15.75Q9.78-16.31 10.75-16.56ZM61.25-30.13L61.25-28.63L60.78-14.66L60.78-14.66Q60.78-6.13 62.28-2.94L62.28-2.94L62.28-2.94Q62.81-1.78 64.16 0L64.16 0L55.47 0L55.47 0Q54.75-2.13 54.53-5.38L54.53-5.38L54.53-5.38Q50.91 0.63 45.19 0.63L45.19 0.63L45.19 0.63Q41.25 0.63 39.16-2.31L39.16-2.31L39.16-2.31Q37.09-5.16 37.09-10.13L37.09-10.13L37.09-14.34L37.09-14.34Q37.09-15.75 37.09-17.22L37.09-17.22L37.03-20.06L37.03-20.06Q37-22.78 36.86-24.30L36.86-24.30L36.86-24.30Q36.72-25.81 36.55-26.83L36.55-26.83L36.55-26.83Q36.38-27.84 36.13-28.64L36.13-28.64L36.13-28.64Q35.88-29.44 35.56-30.13L35.56-30.13L34.88-31.56L43.91-31.56L43.91-31.56Q43.94-31.06 43.94-30.63L43.94-30.63L43.94-29.72L43.94-29.72Q43.94-29.72 43.41-14.03L43.41-14.03L43.41-14.03Q43.41-9.44 44-7.78L44-7.78L44-7.78Q44.59-6.13 45.42-5.41L45.42-5.41L45.42-5.41Q46.25-4.69 47.63-4.69L47.63-4.69L47.63-4.69Q51.34-4.69 53.66-8.75L53.66-8.75L53.66-8.75Q54.28-9.91 54.69-11.09L54.69-11.09L54.69-11.09Q54.75-12.84 54.75-15.06L54.75-15.06L54.75-15.06Q54.75-26.47 53.06-30.13L53.06-30.13L52.38-31.56L61.28-31.56L61.28-31.56Q61.25-30.78 61.25-30.13L61.25-30.13ZM79.75 0L70.78 0L70.78 0Q72.22-4.94 72.22-16.97L72.22-16.97L72.22-16.97Q72.22-25.53 70.72-28.66L70.72-28.66L70.72-28.66Q70.34-29.44 69.88-30.13L69.88-30.13L68.84-31.56L79.69-31.56L79.69-31.56Q79.22-30 79.06-28.63L79.06-28.63L78.81-26.38L78.81-26.38Q82.59-32.19 88.44-32.19L88.44-32.19L88.44-32.19Q92.22-32.19 94.34-29.25L94.34-29.25L94.34-29.25Q96.41-26.38 96.41-21.47L96.41-21.47L96.41-18.13L96.41-18.13Q96.41-9.53 96.56-7.63L96.56-7.63L96.56-7.63Q96.72-5.72 96.81-4.72L96.81-4.72L96.81-4.72Q96.91-3.72 97.03-2.94L97.03-2.94L97.03-2.94Q97.25-1.47 97.69 0L97.69 0L88.53 0L88.53 0Q89.97-4.94 89.97-16.97L89.97-16.97L89.97-16.97Q89.97-21.78 89.36-23.56L89.36-23.56L89.36-23.56Q88.75-25.34 87.91-26.11L87.91-26.11L87.91-26.11Q87.06-26.88 85.69-26.88L85.69-26.88L85.69-26.88Q83.16-26.88 81.09-24.88L81.09-24.88L81.09-24.88Q79.31-23.16 78.38-20.50L78.38-20.50L78.38-20.50Q78.31-19.66 78.31-18.75L78.31-18.75L78.31-16.97L78.31-16.97Q78.31-4.94 79.75 0L79.75 0ZM128.84-16.69L128.84-16.69L128.75-10.69L128.75-10.69Q128.75-5.09 129.78-3.06L129.78-3.06L129.78-3.06Q130.41-1.84 131.25-1.19L131.25-1.19L132.72 0L123.66 0L122.69-3.63L122.69-3.63Q119.16 0.63 112.63 0.63L112.63 0.63L112.63 0.63Q108.91 0.63 106.63-1.88L106.63-1.88L106.63-1.88Q104.63-4.13 104.63-7.19L104.63-7.19L104.63-7.19Q104.63-10.25 106.08-12.53L106.08-12.53L106.08-12.53Q107.53-14.81 109.91-16.31L109.91-16.31L109.91-16.31Q114.59-19.22 121.69-19.34L121.69-19.34L121.69-19.69L121.69-19.69Q121.69-27.28 119.34-28.59L119.34-28.59L119.34-28.59Q118.50-29.06 117.17-29.06L117.17-29.06L117.17-29.06Q115.84-29.06 114.53-28.19L114.53-28.19L114.53-28.19Q113.22-27.31 112.16-25.94L112.16-25.94L112.16-25.94Q110.03-23.16 109.13-19.38L109.13-19.38L109.13-19.38Q106.34-21.03 106.34-25.72L106.34-25.72L106.34-25.72Q106.34-27.63 106.84-30L106.84-30L106.84-30Q108.03-30 109.09-30.34L109.09-30.34L111.50-31.09L111.50-31.09Q115.03-32.19 118.41-32.19L118.41-32.19L118.41-32.19Q121.78-32.19 123.80-31.19L123.80-31.19L123.80-31.19Q125.81-30.19 126.94-28.22L126.94-28.22L126.94-28.22Q128.84-24.88 128.84-16.69ZM111.38-6.56L111.38-6.56Q111.38-4.63 112.27-3.56L112.27-3.56L112.27-3.56Q113.16-2.50 114.50-2.50L114.50-2.50L114.50-2.50Q115.84-2.50 117.09-3.20L117.09-3.20L117.09-3.20Q118.34-3.91 119.34-5.13L119.34-5.13L119.34-5.13Q121.69-7.91 121.69-11.66L121.69-11.66L121.69-16.28L121.69-16.28Q117.31-15.88 114.47-13.38L114.47-13.38L114.47-13.38Q111.38-10.69 111.38-6.56L111.38-6.56ZM162.97-30.13L162.97-28.63L162.50-14.66L162.50-14.66Q162.50-6.13 164-2.94L164-2.94L164-2.94Q164.53-1.78 165.88 0L165.88 0L157.19 0L157.19 0Q156.47-2.13 156.25-5.38L156.25-5.38L156.25-5.38Q152.63 0.63 146.91 0.63L146.91 0.63L146.91 0.63Q142.97 0.63 140.88-2.31L140.88-2.31L140.88-2.31Q138.81-5.16 138.81-10.13L138.81-10.13L138.81-14.34L138.81-14.34Q138.81-15.75 138.81-17.22L138.81-17.22L138.75-20.06L138.75-20.06Q138.72-22.78 138.58-24.30L138.58-24.30L138.58-24.30Q138.44-25.81 138.27-26.83L138.27-26.83L138.27-26.83Q138.09-27.84 137.84-28.64L137.84-28.64L137.84-28.64Q137.59-29.44 137.28-30.13L137.28-30.13L136.59-31.56L145.63-31.56L145.63-31.56Q145.66-31.06 145.66-30.63L145.66-30.63L145.66-29.72L145.66-29.72Q145.66-29.72 145.13-14.03L145.13-14.03L145.13-14.03Q145.13-9.44 145.72-7.78L145.72-7.78L145.72-7.78Q146.31-6.13 147.14-5.41L147.14-5.41L147.14-5.41Q147.97-4.69 149.34-4.69L149.34-4.69L149.34-4.69Q153.06-4.69 155.38-8.75L155.38-8.75L155.38-8.75Q156-9.91 156.41-11.09L156.41-11.09L156.41-11.09Q156.47-12.84 156.47-15.06L156.47-15.06L156.47-15.06Q156.47-26.47 154.78-30.13L154.78-30.13L154.09-31.56L163-31.56L163-31.56Q162.97-30.78 162.97-30.13L162.97-30.13ZM187.47-31.56L197.75-31.56L197.75-31.56Q196.44-29.41 196.44-25.09L196.44-25.09L196.44-25.09Q196.44-24.06 197.06-21.84L197.06-21.84L197.06-21.84Q198.56-16.81 199.22-14.81L199.22-14.81L201.56-8L201.56-8Q203.03-12.34 203.69-14.50L203.69-14.50L203.69-14.50Q206.78-24.81 206.78-26.09L206.78-26.09L206.78-26.09Q206.78-27.38 206.66-28.05L206.66-28.05L206.66-28.05Q206.53-28.72 206.31-29.31L206.31-29.31L206.31-29.31Q205.94-30.16 204.84-31.56L204.84-31.56L215.31-31.56L215.31-31.56Q213.38-29.47 212.63-27.61L212.63-27.61L212.63-27.61Q211.88-25.75 211.50-24.78L211.50-24.78L207.63-13.91L207.63-13.91Q206.19-9.53 205.56-7.41L205.56-7.41L205.56-7.41Q205.19-5.72 205.19-3.81L205.19-3.81L205.19-3.81Q205.19-1.91 206 0.03L206 0.03L194.44 0L194.44 0Q195.19-1.19 195.33-2.23L195.33-2.23L195.33-2.23Q195.47-3.28 195.47-4.28L195.47-4.28L195.47-4.28Q195.47-5.28 195.16-6.75L195.16-6.75L195.16-6.75Q194.84-8.22 194.31-10.13L194.31-10.13L194.31-10.13Q193.25-14.09 191.63-18.59L191.63-18.59L191.63-18.59Q188.59-10.84 187.97-8.33L187.97-8.33L187.97-8.33Q187.34-5.81 187.34-3.89L187.34-3.89L187.34-3.89Q187.34-1.97 188.19 0.03L188.19 0.03L176.63 0L176.63 0Q177.38-1.19 177.52-2.23L177.52-2.23L177.52-2.23Q177.66-3.28 177.66-4.39L177.66-4.39L177.66-4.39Q177.66-5.50 177.20-7.59L177.20-7.59L177.20-7.59Q176.75-9.69 176-12.34L176-12.34L176-12.34Q175.25-15 174.28-17.95L174.28-17.95L174.28-17.95Q173.31-20.91 172.25-23.59L172.25-23.59L172.25-23.59Q169.84-29.69 168.19-31.56L168.19-31.56L179.72-31.56L179.72-31.56Q179.16-30.19 179.16-28.53L179.16-28.53L179.16-28.53Q179.16-26.88 179.39-25.64L179.39-25.64L179.39-25.64Q179.63-24.41 180.02-22.78L180.02-22.78L180.02-22.78Q180.41-21.16 180.94-19.28L180.94-19.28L184.06-8.31L184.06-8.31Q188.53-19.63 189.03-21.80L189.03-21.80L189.03-21.80Q189.53-23.97 189.53-24.59L189.53-24.59L189.53-24.59Q189.53-28.63 187.47-31.56L187.47-31.56ZM241.75-16.69L241.75-16.69L241.66-10.69L241.66-10.69Q241.66-5.09 242.69-3.06L242.69-3.06L242.69-3.06Q243.31-1.84 244.16-1.19L244.16-1.19L245.63 0L236.56 0L235.59-3.63L235.59-3.63Q232.06 0.63 225.53 0.63L225.53 0.63L225.53 0.63Q221.81 0.63 219.53-1.88L219.53-1.88L219.53-1.88Q217.53-4.13 217.53-7.19L217.53-7.19L217.53-7.19Q217.53-10.25 218.98-12.53L218.98-12.53L218.98-12.53Q220.44-14.81 222.81-16.31L222.81-16.31L222.81-16.31Q227.50-19.22 234.59-19.34L234.59-19.34L234.59-19.69L234.59-19.69Q234.59-27.28 232.25-28.59L232.25-28.59L232.25-28.59Q231.41-29.06 230.08-29.06L230.08-29.06L230.08-29.06Q228.75-29.06 227.44-28.19L227.44-28.19L227.44-28.19Q226.13-27.31 225.06-25.94L225.06-25.94L225.06-25.94Q222.94-23.16 222.03-19.38L222.03-19.38L222.03-19.38Q219.25-21.03 219.25-25.72L219.25-25.72L219.25-25.72Q219.25-27.63 219.75-30L219.75-30L219.75-30Q220.94-30 222-30.34L222-30.34L224.41-31.09L224.41-31.09Q227.94-32.19 231.31-32.19L231.31-32.19L231.31-32.19Q234.69-32.19 236.70-31.19L236.70-31.19L236.70-31.19Q238.72-30.19 239.84-28.22L239.84-28.22L239.84-28.22Q241.75-24.88 241.75-16.69ZM224.28-6.56L224.28-6.56Q224.28-4.63 225.17-3.56L225.17-3.56L225.17-3.56Q226.06-2.50 227.41-2.50L227.41-2.50L227.41-2.50Q228.75-2.50 230-3.20L230-3.20L230-3.20Q231.25-3.91 232.25-5.13L232.25-5.13L232.25-5.13Q234.59-7.91 234.59-11.66L234.59-11.66L234.59-16.28L234.59-16.28Q230.22-15.88 227.38-13.38L227.38-13.38L227.38-13.38Q224.28-10.69 224.28-6.56L224.28-6.56ZM267.53-9.41L267.53-10.34L267.56-17.28L267.56-17.28Q267.56-23.81 267.22-25.81L267.22-25.81L267.22-25.81Q266.88-27.81 266.67-28.61L266.67-28.61L266.67-28.61Q266.47-29.41 266.19-30.09L266.19-30.09L265.59-31.56L274.81-31.56L274.66-30.13L274.66-30.13Q274.47-28.63 274.41-25.75L274.41-25.75L274.28-21L274.28-21Q274.13-15.53 274.13-10.78L274.13-10.78L274.13-10.78Q274.13-6.03 273.55-2.66L273.55-2.66L273.55-2.66Q272.97 0.72 272 3.28L272 3.28L272 3.28Q271.03 5.84 269.78 7.70L269.78 7.70L269.78 7.70Q268.53 9.56 267.16 10.81L267.16 10.81L267.16 10.81Q264.78 13.06 261.84 14.06L261.84 14.06L261.84 14.06Q261.22 13.81 260.64 13.14L260.64 13.14L260.64 13.14Q260.06 12.47 259.94 11.88L259.94 11.88L259.94 11.88Q262.69 10.47 264.34 7.56L264.34 7.56L264.34 7.56Q266.69 3.44 267.31-4.34L267.31-4.34L267.31-4.34Q263.69 0.63 258.41 0.63L258.41 0.63L258.41 0.63Q254.66 0.63 252.59-2.31L252.59-2.31L252.59-2.31Q250.63-5.16 250.63-10.13L250.63-10.13L250.63-14.34L250.63-14.34Q250.63-15.75 250.59-17.22L250.59-17.22L250.59-20.06L250.59-20.06Q250.53-22.78 250.39-24.30L250.39-24.30L250.39-24.30Q250.25-25.81 250.08-26.83L250.08-26.83L250.08-26.83Q249.91-27.84 249.66-28.64L249.66-28.64L249.66-28.64Q249.41-29.44 249.09-30.13L249.09-30.13L248.41-31.56L257.94-31.56L257.94-31.56Q257.13-27.09 257.13-14.66L257.13-14.66L257.13-14.66Q257.13-9.59 257.66-7.91L257.66-7.91L257.66-7.91Q258.19-6.22 258.98-5.45L258.98-5.45L258.98-5.45Q259.78-4.69 261.03-4.69L261.03-4.69L261.03-4.69Q262.28-4.69 263.23-5.08L263.23-5.08L263.23-5.08Q264.19-5.47 264.97-6.13L264.97-6.13L264.97-6.13Q266.50-7.31 267.53-9.41L267.53-9.41ZM268.53-12.06L268.72-12.81L268.53-12.06Z" fill="url(#editing-shiny-gradient2)"></path></g></g><style>text {
  font-size: 64px;
  font-family: Arial Black;
  dominant-baseline: central;
  text-anchor: middle;
}</style></svg>